<svg width="20" height="20" fill="none" xmlns="http://www.w3.org/2000/svg"><path fill-rule="evenodd" clip-rule="evenodd" d="M4 10h1a4 4 0 0 1 4 4v2a4 4 0 0 1-4 4H4a4 4 0 0 1-4-4v-2a4 4 0 0 1 4-4Zm0 2a2 2 0 0 0-2 2v2a2 2 0 0 0 2 2h1a2 2 0 0 0 2-2v-2a2 2 0 0 0-2-2H4ZM3.5 0A3.5 3.5 0 0 1 7 3.5v1a3.5 3.5 0 1 1-7 0v-1A3.5 3.5 0 0 1 3.5 0Zm0 2A1.5 1.5 0 0 0 2 3.5v1a1.5 1.5 0 1 0 3 0v-1A1.5 1.5 0 0 0 3.5 2ZM15 9h1a4 4 0 0 1 4 4v3a4 4 0 0 1-4 4h-1a4 4 0 0 1-4-4v-3a4 4 0 0 1 4-4Zm0 2a2 2 0 0 0-2 2v3a2 2 0 0 0 2 2h1a2 2 0 0 0 2-2v-3a2 2 0 0 0-2-2h-1ZM12.5 0h4a3.5 3.5 0 1 1 0 7h-4a3.5 3.5 0 1 1 0-7Zm0 2a1.5 1.5 0 0 0 0 3h4a1.5 1.5 0 0 0 0-3h-4Z" fill="#92929D"/></svg>