<svg width="20" height="22" fill="none" xmlns="http://www.w3.org/2000/svg"><path fill-rule="evenodd" clip-rule="evenodd" d="M7.094 2.34A2.964 2.964 0 0 1 10 0c1.404 0 2.616.976 2.906 2.34l.056.265a8.974 8.974 0 0 1 2.888 1.652l.257-.084A2.98 2.98 0 0 1 19.602 5.5a2.93 2.93 0 0 1-.589 3.666l-.202.18a8.817 8.817 0 0 1-.002 3.307l.204.18a2.93 2.93 0 0 1 .59 3.667 2.98 2.98 0 0 1-3.496 1.327l-.258-.084a9.007 9.007 0 0 1-2.887 1.654l-.056.264A2.964 2.964 0 0 1 10 22a2.964 2.964 0 0 1-2.906-2.34l-.056-.265a8.973 8.973 0 0 1-2.888-1.652l-.257.084A2.98 2.98 0 0 1 .398 16.5a2.93 2.93 0 0 1 .589-3.666l.202-.18a8.817 8.817 0 0 1 .001-3.307l-.203-.18A2.93 2.93 0 0 1 .397 5.5a2.98 2.98 0 0 1 3.496-1.327l.258.084a9.008 9.008 0 0 1 2.887-1.654l.056-.264ZM10 2c-.45 0-.84.313-.933.751l-.178.837c-.078.367-.355.66-.72.759A6.993 6.993 0 0 0 5.108 6.1a1.014 1.014 0 0 1-1.022.24l-.82-.266a.957.957 0 0 0-1.122.426.94.94 0 0 0 .189 1.177l.644.573c.28.25.397.636.301.998a6.834 6.834 0 0 0-.001 3.504.995.995 0 0 1-.302 1l-.642.57a.94.94 0 0 0-.19 1.178.957.957 0 0 0 1.123.426l.82-.266c.359-.117.754-.024 1.023.24a6.954 6.954 0 0 0 3.06 1.75c.364.1.642.393.72.76l.178.839A.952.952 0 0 0 10 20c.45 0 .84-.313.933-.751l.178-.837c.077-.367.355-.66.72-.759a6.995 6.995 0 0 0 3.061-1.753 1.014 1.014 0 0 1 1.022-.24l.82.266a.957.957 0 0 0 1.122-.426.94.94 0 0 0-.189-1.177l-.644-.573a.995.995 0 0 1-.301-.998 6.833 6.833 0 0 0 .001-3.504.995.995 0 0 1 .302-1l.642-.57a.94.94 0 0 0 .19-1.178.957.957 0 0 0-1.123-.426l-.82.266c-.359.116-.754.024-1.023-.24a6.954 6.954 0 0 0-3.06-1.75 1.003 1.003 0 0 1-.72-.76l-.178-.839A.952.952 0 0 0 10 2Zm0 12.632c2.022 0 3.66-1.626 3.66-3.632 0-2.006-1.638-3.632-3.66-3.632-2.022 0-3.66 1.626-3.66 3.632 0 2.006 1.638 3.632 3.66 3.632Zm0-2c-.908 0-1.645-.73-1.645-1.632 0-.901.737-1.632 1.645-1.632s1.645.73 1.645 1.632c0 .901-.737 1.632-1.645 1.632Z" fill="#92929D"/></svg>