<svg width="22" height="22" fill="none" xmlns="http://www.w3.org/2000/svg"><path fill-rule="evenodd" clip-rule="evenodd" d="M20.783 21.976a1 1 0 0 0 1.193-1.193l-1.097-4.94A10.959 10.959 0 0 0 22 11c0-6.075-4.925-11-11-11S0 4.925 0 11s4.925 11 11 11c1.702 0 3.35-.388 4.844-1.121l4.94 1.097Zm-1.84-6.739a1 1 0 0 0-.095.689l.835 3.757-3.757-.835a1 1 0 0 0-.689.094A8.955 8.955 0 0 1 11 20a9 9 0 1 1 9-9c0 1.5-.366 2.945-1.058 4.237ZM10 11a2 2 0 1 1-4 0 2 2 0 0 1 4 0Zm4 2a2 2 0 1 0 0-4 2 2 0 0 0 0 4Z" fill="#FAFAFB"/></svg>