<svg width="20" height="21" fill="none" xmlns="http://www.w3.org/2000/svg"><path fill-rule="evenodd" clip-rule="evenodd" d="M7.63 9.79c-.18-.191-.213-.634.02-1.16.878-2.345.997-2.78.435-3.372l-3.61-3.8C3.782.728 2.681.914 2 1.631-.667 4.438-.667 8.97 2 11.776l6.742 7.097c2.694 2.836 7.085 2.836 9.78 0 .658-.693.82-1.765.164-2.457l-3.61-3.8c-.605-.636-1.016-.511-3.27.421-.52.254-.877.224-1.035.058L7.63 9.79Zm9.381 7.768c-1.91 1.944-4.933 1.923-6.819-.062L3.45 10.399c-1.89-1.99-1.932-5.206-.128-7.25l3.006 3.163-.007.026c-.094.345-.269.86-.52 1.536-.515 1.15-.418 2.454.38 3.293l3.14 3.305c.82.864 2.122.972 3.31.386a18.35 18.35 0 0 1 1.339-.502l3.041 3.202ZM11.7 9.2a.8.8 0 0 0-.8-.8 1 1 0 1 1 0-2 2.8 2.8 0 0 1 2.8 2.8 1 1 0 1 1-2 0Zm-.8-3.5a3.5 3.5 0 0 1 3.5 3.5 1 1 0 1 0 2 0 5.5 5.5 0 0 0-5.5-5.5 1 1 0 1 0 0 2Zm6.2 3.5A6.2 6.2 0 0 0 10.9 3a1 1 0 1 1 0-2 8.2 8.2 0 0 1 8.2 8.2 1 1 0 1 1-2 0Z" fill="#B5B5BE"/></svg>