<svg width="208" height="28" fill="none" xmlns="http://www.w3.org/2000/svg"><circle cx="86" cy="14" r="11.375" fill="#FC5A5A"/><mask id="mask0_0_363" style="mask-type:luminance" maskUnits="userSpaceOnUse" x="74" y="2" width="24" height="24"><circle cx="86" cy="14" r="11.375" fill="#fff"/></mask><circle cx="86" cy="14" r="13" stroke="#44444F"/><circle cx="158" cy="14" r="11.375" fill="#FC5A5A"/><mask id="mask1_0_363" style="mask-type:luminance" maskUnits="userSpaceOnUse" x="146" y="2" width="24" height="24"><circle cx="158" cy="14" r="11.375" fill="#fff"/></mask><circle cx="158" cy="14" r="13" stroke="#44444F"/><circle cx="194" cy="14" r="11.375" fill="#FC5A5A"/><mask id="mask2_0_363" style="mask-type:luminance" maskUnits="userSpaceOnUse" x="182" y="2" width="24" height="24"><circle cx="194" cy="14" r="11.375" fill="#fff"/></mask><circle cx="194" cy="14" r="13" stroke="#44444F"/><circle cx="50" cy="14" r="11.375" fill="#FC5A5A"/><mask id="mask3_0_363" style="mask-type:luminance" maskUnits="userSpaceOnUse" x="38" y="2" width="24" height="24"><circle cx="50" cy="14" r="11.375" fill="#fff"/></mask><circle cx="50" cy="14" r="13" stroke="#44444F"/><circle cx="122" cy="14" r="11.375" fill="#FC5A5A"/><circle cx="122" cy="14" r="13" stroke="#44444F"/><circle cx="14" cy="14" r="11.375" fill="#FC5A5A"/><circle cx="14" cy="14" r="13" stroke="#44444F"/></svg>